<?xml version="1.0" encoding="UTF-8"?>
<svg width="51px" height="51px" viewBox="0 0 51 51" version="1.1" xmlns="http://www.w3.org/2000/svg" xmlns:xlink="http://www.w3.org/1999/xlink">
    <g id="Page-1" stroke="none" stroke-width="1" fill="none" fill-rule="evenodd">
        <g id="black" transform="translate(-230.000000, -109.000000)" fill="#FFFFFF" fill-rule="nonzero">
            <g id="Shape-2" transform="translate(235.000000, 110.000000)">
                <path d="M24.8923613,5.86458923 L15.5591651,11.2442973 L26.3779683,17.4803178 L38.4562044,10.4573171 L41,11.8018293 L22.2956204,22.5934226 L22.2956204,48.2530488 L21.1407421,49 L19.9014599,48.2530488 L19.9014599,22.5447717 L0,11.054878 L19.1532847,0 L21.5474453,1.3445122 L4.81767244,11.0903738 L21.1407421,20.4990852 L23.9838078,18.8603258 L10.9233577,11.054878 L13.1650045,9.86428933 L24.8923613,3.10457331 L33.8175182,8.23957417 L24.4872008,13.7439024 L21.9963504,12.25 L29.0126964,8.23957417 L24.8923613,5.86458923 Z M13.5709817,41.8669616 L13.5709817,25.3620516 L2.88887234,19.2048223 L2.88887234,24.6585366 L0.299270073,23.0426829 L0.299270073,14.6402439 L2.95236693,16.2560976 L16.1280023,23.8506098 L16.0345581,24.0121951 L16.1605839,24.0121951 L16.1605839,46.3109756 L13.5384001,44.8335047 L0.299270073,37.2621951 L0.299270073,28.375 L2.88887234,29.9292577 L6.12587517,31.7950848 L6.12587517,27.2439024 L8.71547743,28.6981707 L8.71547743,36.2926829 L6.12587517,34.7804081 L2.88887234,32.914581 L2.88887234,35.7097322 L13.5709817,41.8669616 Z M37.2417247,36.5995625 L37.2417247,20.5649482 L26.0364964,27.0896916 L26.0364964,24.0729473 L39.8029197,16.1341463 L39.8029197,38.0662726 L26.0364964,46.3109756 L26.0364964,31.6941961 L28.5976914,30.265212 L28.5976914,41.5497089 L37.2417247,36.5995625 Z" id="Shape"></path>
                <polygon id="Rectangle" points="31 28 34.5 26 34.5 34 31 36"></polygon>
            </g>
        </g>
    </g>
</svg>